<svg xmlns="http://www.w3.org/2000/svg" width="294" height="209" fill="none" viewBox="0 0 294 209">
<!-- SVG created with Arrow, by QuiverAI (https://quiver.ai) -->
  <path d="m293.7 0h-293.6v209h293.6v-209z" fill="url(#paint0_radial_865_1476)"/>
  <path d="m293.7 0h-293.6v208.7h293.6v-208.7z" fill="url(#paint1_radial_865_1476)" fill-opacity=".2"/>
  <path d="m225.9 67.09c-11.02-30.93-40.56-58.7-79.31-58.7-36.98 0-66.6 25.34-79.5 58.81-32.11 5.01-58.95 32.69-58.95 66.69 0 33.14 27.44 64.82 64.64 64.82h27.47c7.57 0 13.18-1.45 17.98-7.22l29.81-31.78v-17.08c5.5-0.57 9.05-2.67 11.85-5.26l15.79 15.79v31.86c0 8.6 6.98 13.69 14.27 13.69h30.33c35.5 0 65.52-29.02 65.52-64.3 0-33.24-24.41-63.32-59.9-67.32z" fill="url(#paint2_radial_865_1476)" stroke="#67e8f9" stroke-miterlimit="10" stroke-width="3.5"/>
  <path d="m146.5 101.2v-67.22" stroke="#67e8f9" stroke-miterlimit="10" stroke-width="3.5"/>
  <path d="m133.1 107.4-31.47-31.47v-17.93" stroke="#67e8f9" stroke-miterlimit="10" stroke-width="3.5"/>
  <path d="m160.8 107.1 40-40" stroke="#67e8f9" stroke-miterlimit="10" stroke-width="3.5"/>
  <path d="m166 121h23.95l34.02 35.65h24.88" stroke="#67e8f9" stroke-miterlimit="10" stroke-width="3.5"/>
  <path d="m161.1 134.2 36.22 37.79" stroke="#67e8f9" stroke-miterlimit="10" stroke-width="3.5"/>
  <path d="m133.7 134.5-36.51 37.5" stroke="#67e8f9" stroke-miterlimit="10" stroke-width="3.5"/>
  <path d="m105.6 121-20.07-18.66h-30.43" stroke="#67e8f9" stroke-miterlimit="10" stroke-width="3.5"/>
  <path d="m105.6 121.5h21.46" stroke="#67e8f9" stroke-miterlimit="10" stroke-width="3.5"/>
  <path d="m35.36 139.3h50.22l20.07-18.94" stroke="#67e8f9" stroke-miterlimit="10" stroke-width="3.5"/>
  <path d="m146.5 139.9c10.42 0 18.86-8.44 18.86-18.87 0-10.42-8.44-18.86-18.86-18.86-10.43 0-18.87 8.44-18.87 18.86 0 10.43 8.44 18.87 18.87 18.87z" fill="url(#paint3_radial_865_1476)" stroke="#67e8f9" stroke-miterlimit="10" stroke-width="3.5"/>
  <path d="m146.5 131c6.39 0 9.97-4.87 9.97-10.09 0-5.64-4.7-9.61-9.97-9.61-5.78 0-9.98 4.78-9.98 9.61 0 5.79 4.6 10.09 9.98 10.09z" fill="url(#paint4_radial_865_1476)"/>
  <path d="m146.5 36.66c4.63 0 5.23-3.85 5.23-5.54 0-4.19-2.94-5.76-5.23-5.76-3.98 0-5.68 2.95-5.68 5.3 0 3.6 2.71 6 5.68 6z" fill="#67e8f9"/>
  <path d="m101.3 59.16c4.63 0 5.68-3.85 5.68-5.54 0-4.19-2.95-5.76-5.24-5.61-3.98 0-5.39 2.95-5.39 5.3 0 3.6 2.53 5.85 4.95 5.85z" fill="#67e8f9"/>
  <path d="m50.81 107.4c4.63 0 5.68-3.25 5.68-5.24 0-3.6-2.71-5.45-5.4-5.45-3.98 0-5.97 2.81-5.97 5.16 0 3.6 2.71 5.53 5.69 5.53z" fill="#67e8f9"/>
  <path d="m30.45 145.6c4.63 0 5.97-3.25 5.97-5.53 0-3.6-2.71-5.57-5.4-5.57-3.98 0-5.4 3.1-6.01 4.81 0 3.91 2.71 6.29 5.44 6.29z" fill="#67e8f9"/>
  <path d="m93.78 179.3c4.63 0 5.68-3.6 5.68-5.59 0-3.6-2.42-5.31-4.84-5.31-3.98 0-5.97 2.35-6.26 5 0 3.91 2.42 5.9 5.42 5.9z" fill="#67e8f9"/>
  <path d="m200.2 179.3c4.63 0 5.98-3.25 5.98-4.96 0-3.6-2.71-5.59-5.41-5.59-3.98 0-5.69 2.35-5.69 5 0 3.6 2.42 5.55 5.12 5.55z" fill="#67e8f9"/>
  <path d="m252.7 161.7c4.63 0 5.68-3.56 5.68-5.27 0-3.6-2.71-5.59-5.4-5.59-3.98 0-5.69 2.95-5.69 5.3 0 3.6 2.42 5.56 5.41 5.56z" fill="#67e8f9"/>
  <path d="m203.4 70.66c4.63 0 5.38-3.25 5.38-4.96 0-4.19-2.95-5.76-4.94-5.76-3.98 0-5.69 2.65-5.69 5 0 3.6 2.26 5.72 5.25 5.72z" fill="#67e8f9"/>
  <defs>
    <radialGradient id="paint0_radial_865_1476" cx="0" cy="0" r="1" gradientTransform="translate(146.9 104.5) scale(219.2 208.4)" gradientUnits="userSpaceOnUse">
      <stop stop-color="#13112e" offset="0"/>
      <stop stop-color="#0d0d1a" offset="1"/>
    </radialGradient>
    <radialGradient id="paint1_radial_865_1476" cx="0" cy="0" r="1" gradientTransform="translate(146.9 104.4) scale(181.6 172.8)" gradientUnits="userSpaceOnUse">
      <stop stop-color="#13112e" offset="0"/>
      <stop stop-color="#0d0d1a" offset="1"/>
    </radialGradient>
    <radialGradient id="paint2_radial_865_1476" cx="0" cy="0" r="1" gradientTransform="translate(147 103.6) scale(131.7)" gradientUnits="userSpaceOnUse">
      <stop stop-color="#13112e" offset="0"/>
      <stop stop-color="#0d0d1a" offset="1"/>
    </radialGradient>
    <radialGradient id="paint3_radial_865_1476" cx="0" cy="0" r="1" gradientTransform="translate(146.5 121) scale(17.44)" gradientUnits="userSpaceOnUse">
      <stop stop-color="#13112e" offset="0"/>
      <stop stop-color="#0d0d1a" offset="1"/>
    </radialGradient>
    <radialGradient id="paint4_radial_865_1476" cx="0" cy="0" r="1" gradientTransform="translate(146.5 120.3) scale(11.09)" gradientUnits="userSpaceOnUse">
      <stop stop-color="#cffafe" offset="0"/>
      <stop stop-color="#67e8f9" offset=".9062"/>
    </radialGradient>
  </defs>
</svg>
